Full Name: Prince of Persia: The Sands of Time 

A young fugitive prince and princess must stop a villain who unknowingly threatens to destroy the world with a special dagger that enables the magic sand inside to reverse time.
 
http://www.imdb.com/title/tt0473075/

Subtitles (srt) : Dutch, English.

Covers included.

Dastan (Jake Gyllenhaal) groeit op als weesjongen in de straten van de koninklijke stad Nasaf. De koning ziet potentie in hem en besluit Dastan te adopteren en op te nemen in de koninklijke familie. Eenmaal volwassen gaat Dastan samen met zijn stiefbroers op veldtocht om zijn rijk te verdedigen. Ook het afgelegen bergkoninkrijk van de mooie prinses Tamina (Gemma Arterton) fungeert als doelwit. Maar Dastan weet niet dat de prinses de hoeder is van een magische ‘dolk der tijd’, waarmee de tijd enkele ogenblikken kan worden teruggehaald. Een machtig wapen, dat niet in verkeerde handen mag vallen. Maar een verrader binnen het Perzische koningshuis heeft het echter op de magische dolk voorzien...
 
http://www.moviemeter.nl/film/52473

Ondertitels (srt) : Engels, Nederlands.

Hoesjes bijgevoegd.

General
Complete name                    : Prince of Persia-AC3-XviD-R4-DVDRip[Eng]2010 2Lions-Team\Prince of Persia-AC3-XviD-R4-DVDRip[Eng]2010 2Lions-Team.avi
Format                           : AVI
Format/Info                      : Audio Video Interleave
File size                        : 1.38 GiB
Duration                         : 1h 55mn
Overall bit rate                 : 1 707 Kbps
Writing application              : VirtualDubMod 1.5.4.1 (build 2178/release)
Writing library                  : VirtualDubMod build 2178/release
Source                           : Prince.of.Persia.The.Sands.of.Time.2010.NTSC.DVDR-SW

Video
ID                               : 0
Format                           : MPEG-4 Visual
Format profile                   : Simple@L3
Format settings, BVOP            : No
Format settings, QPel            : No
Format settings, GMC             : No warppoints
Format settings, Matrix          : Default (H.263)
Codec ID                         : XVID
Codec ID/Hint                    : XviD
Duration                         : 1h 55mn
Bit rate                         : 1 250 Kbps
Width                            : 720 pixels
Height                           : 304 pixels
Display aspect ratio             : 2.35:1
Frame rate                       : 23.976 fps
Resolution                       : 8 bits
Colorimetry                      : 4:2:0
Scan type                        : Progressive
Bits/(Pixel*Frame)               : 0.238
Stream size                      : 1.01 GiB (73%)
Writing library                  : XviD 1.1.2 (UTC 2006-11-01)

Audio
ID                               : 1
Format                           : AC-3
Format/Info                      : Audio Coding 3
Format_Settings_ModeExtension    : CM (complete main)
Codec ID                         : 2000
Duration                         : 1h 55mn
Bit rate mode                    : Constant
Bit rate                         : 448 Kbps
Channel(s)                       : 6 channels
Channel positions                : Front: L C R, Side: L R, LFE
Sampling rate                    : 48.0 KHz
Stream size                      : 371 MiB (26%)
Alignment                        : Split accross interleaves
Interleave, duration             : 42 ms (1.00 video frame)
Interleave, preload duration     : 500 ms

Brought to you by 
2Lions Team

meer zien??
                   
Kom dan eens kijken op ons NIEUWE forum 
            
http://www.2lions-site.nl/

2Lions the site to be for all your Dutch MOVIES and more

******************************************

DON T HIT AND RUN Niet gelijk afhaken als de FILM binnen is blijf seeden. 

Don`t quit after you finished the download, but keep seeding

There are fake torrents from uploaders who use our team name.
Those are not ours, or members from our team.
We 2Lions-Team are not responsible for the fake posts on our name

Wij 2Lions-Team zijn niet verantwoordelijk voor die zieke FAKE posten die op onze naam worden gedaan

Please check our site !!!

to the fakers , get a life !!!